HIERARCHY
ROOT Hips
{
	OFFSET	0.00	0.00	0.00
	CHANNELS 6 Xposition Yposition Zposition Zrotation Xrotation Yrotation
	JOINT LeftHip
	{
		OFFSET	 3.430000	 0.000000	 0.000000
		CHANNELS 3 Zrotation Xrotation Yrotation
		JOINT LeftKnee
		{
			OFFSET	 0.000000	-18.469999	 0.000000
			CHANNELS 3 Zrotation Xrotation Yrotation
			JOINT LeftAnkle
			{
				OFFSET	 0.000000	-17.950001	 0.000000
				CHANNELS 3 Zrotation Xrotation Yrotation
				End Site 
				{
					OFFSET	 0.000000	-3.119996	 0.000000
				}
			}
		}
	}
	JOINT RightHip
	{
		OFFSET	-3.430000	 0.000000	 0.000000
		CHANNELS 3 Zrotation Xrotation Yrotation
		JOINT RightKnee
		{
			OFFSET	 0.000000	-18.809999	 0.000000
			CHANNELS 3 Zrotation Xrotation Yrotation
			JOINT RightAnkle
			{
				OFFSET	 0.000000	-17.570000	 0.000000
				CHANNELS 3 Zrotation Xrotation Yrotation
				End Site 
				{
					OFFSET	 0.000000	-3.250000	 0.000000
				}
			}
		}
	}
	JOINT Chest
	{
		OFFSET	 0.000000	 4.570000	 0.000000
		CHANNELS 3 Zrotation Xrotation Yrotation
		JOINT LeftCollar
		{
			OFFSET	 1.060000	 15.330000	 1.760000
			CHANNELS 3 Zrotation Xrotation Yrotation
			JOINT LeftShoulder
			{
				OFFSET	 5.810000	 0.000000	 0.000000
				CHANNELS 3 Zrotation Xrotation Yrotation
				JOINT LeftElbow
				{
					OFFSET	 0.000000	-12.080000	 0.000000
					CHANNELS 3 Zrotation Xrotation Yrotation
					JOINT LeftWrist
					{
						OFFSET	 0.000000	-9.820000	 0.000000
						CHANNELS 3 Zrotation Xrotation Yrotation
						End Site 
						{
							OFFSET	 0.000000	-7.369996	 0.000000
						}
					}
				}
			}
		}
		JOINT RightCollar
		{
			OFFSET	-1.060000	 15.330000	 1.760000
			CHANNELS 3 Zrotation Xrotation Yrotation
			JOINT RightShoulder
			{
				OFFSET	-6.060000	 0.000000	 0.000000
				CHANNELS 3 Zrotation Xrotation Yrotation
				JOINT RightElbow
				{
					OFFSET	 0.000000	-11.900000	 0.000000
					CHANNELS 3 Zrotation Xrotation Yrotation
					JOINT RightWrist
					{
						OFFSET	 0.000000	-9.520000	 0.000000
						CHANNELS 3 Zrotation Xrotation Yrotation
						End Site 
						{
							OFFSET	 0.000000	-7.140012	 0.000000
						}
					}
				}
			}
		}
		JOINT Neck
		{
			OFFSET	 0.000000	 17.620001	 0.000000
			CHANNELS 3 Zrotation Xrotation Yrotation
			JOINT Head
			{
				OFFSET	 0.000000	 5.190000	 0.000000
				CHANNELS 3 Zrotation Xrotation Yrotation
				End Site 
				{
					OFFSET	 0.000000	 4.140008	 0.000000
				}
			}
		}
	}
}

MOTION
Frames: 16
Frame Time: 0.033333
-49.2671 2.7027 -39.029 -1.88619 3.24226 77.0684 7.91635 -17.6833 11.2808 0.595252 15.5851 4.62812 -11.0711 6.28132 -1.74196 -8.5774 4.54489 -18.7976 2.72472 7.54095 3.01692 0.572931 -13.1308 -7.44009 2.7276 1.25175 0.888012 0 0 0 2.09688 -0.904361 2.31609 -10.9806 -10.2522 -2.62362 21.0663 -9.32041 -15.1521 0 0 0 -12.1035 3.2109 -13.512 5.18312 -14.555 4.73551 -14.8703 -18.7907 17.8869 0 0 0 -1.82058 13.1104 12.8929 
-49.2645 2.7036 -39.0281 -1.89083 3.24011 77.0735 7.92161 -17.6852 11.2519 0.5764 15.5815 4.6597 -11.0616 6.27908 -1.75533 -8.57274 4.53918 -18.7988 2.72347 7.54168 3.01238 0.571815 -13.1337 -7.43987 2.72992 1.26274 0.897418 0 0 0 2.09489 -0.925953 2.3004 -10.977 -10.2502 -2.62868 21.0675 -9.31277 -15.1456 0 0 0 -12.0946 3.18318 -13.5048 5.16636 -14.5486 4.73217 -14.8694 -18.7959 17.8856 0 0 0 -1.81689 13.0888 12.9055 
-49.2656 2.7042 -39.0275 -1.90236 3.24864 77.0773 7.91795 -17.6968 11.2343 0.570326 15.5806 4.67651 -11.0592 6.27977 -1.75695 -8.57732 4.5251 -18.801 2.72065 7.54641 3.00767 0.573201 -13.1401 -7.4377 2.72271 1.25444 0.903917 0 0 0 2.09749 -0.93635 2.29301 -10.9782 -10.2471 -2.63496 21.0683 -9.30763 -15.1413 0 0 0 -12.0956 3.16516 -13.492 5.16751 -14.5408 4.73086 -14.8703 -18.8019 17.8886 0 0 0 -1.80563 13.1013 12.9008 
-49.264 2.7046 -39.0296 -1.91057 3.25472 77.08 7.914 -17.7076 11.2146 0.567397 15.588 4.69443 -11.0592 6.27467 -1.75874 -8.58442 4.51775 -18.8065 2.72259 7.5487 3.0087 0.574012 -13.1411 -7.43886 2.71695 1.25364 0.911718 0 0 0 2.10043 -0.947645 2.28621 -10.9799 -10.2458 -2.64094 21.069 -9.30396 -15.1434 0 0 0 -12.0955 3.14792 -13.4868 5.17084 -14.5359 4.73768 -14.8793 -18.8143 17.8878 0 0 0 -1.79619 13.1051 12.8941 
-49.2614 2.7046 -39.0322 -1.92192 3.26387 77.0822 7.91516 -17.7151 11.2101 0.558814 15.5897 4.70091 -11.061 6.26836 -1.76254 -8.59481 4.50632 -18.8052 2.72873 7.54613 3.00414 0.574234 -13.1515 -7.44123 2.70555 1.25833 0.931024 0 0 0 2.10193 -0.980135 2.26283 -10.9733 -10.2358 -2.63923 21.0679 -9.29985 -15.1445 0 0 0 -12.0904 3.09402 -13.4652 5.16496 -14.5114 4.73323 -14.8846 -18.8223 17.8957 0 0 0 -1.77883 13.1094 12.8857 
-49.264 2.7071 -39.0322 -1.9324 3.27482 77.0957 7.90963 -17.7262 11.1868 0.549985 15.5936 4.71429 -11.062 6.26385 -1.76444 -8.6061 4.49706 -18.815 2.73298 7.54745 3.00092 0.576989 -13.1453 -7.44443 2.69557 1.26454 0.921024 0 0 0 2.10706 -1.00682 2.26145 -10.9781 -10.2358 -2.65031 21.0666 -9.29285 -15.1411 0 0 0 -12.0902 3.04334 -13.4348 5.16104 -14.4934 4.73852 -14.8872 -18.8311 17.8952 0 0 0 -1.77271 13.1122 12.9002 
-49.2614 2.7096 -39.0372 -1.94844 3.27338 77.0987 7.9188 -17.7367 11.1687 0.535516 15.5943 4.73726 -11.0566 6.25782 -1.77599 -8.60786 4.48382 -18.8142 2.7377 7.55119 2.99479 0.583332 -13.1475 -7.44604 2.69818 1.25623 0.931124 0 0 0 2.1058 -1.02811 2.25026 -10.9802 -10.2259 -2.66212 21.0735 -9.28672 -15.1397 0 0 0 -12.089 3.00658 -13.4106 5.15557 -14.4782 4.73035 -14.891 -18.8459 17.8972 0 0 0 -1.76671 13.1199 12.9072 
-49.2589 2.7096 -39.0397 -1.9563 3.27756 77.0994 7.91115 -17.7466 11.1694 0.538226 15.5951 4.74548 -11.0481 6.25816 -1.79269 -8.61812 4.47936 -18.8148 2.74593 7.55128 2.99601 0.588732 -13.1435 -7.44695 2.69446 1.25803 0.949229 0 0 0 2.10657 -1.04611 2.22657 -10.9846 -10.2195 -2.66237 21.0816 -9.29171 -15.1426 0 0 0 -12.0813 2.97664 -13.4009 5.1409 -14.4113 4.71116 -14.8914 -18.9128 17.895 0 0 0 -1.76435 13.1236 12.9073 
-49.2589 2.7121 -39.0422 -1.96657 3.28265 77.1089 7.90346 -17.7599 11.172 0.538199 15.5968 4.73472 -11.0415 6.25556 -1.79167 -8.62792 4.4737 -18.8243 2.75483 7.55019 2.9957 0.594781 -13.1423 -7.45174 2.68781 1.24343 0.953324 0 0 0 2.11023 -1.05192 2.20677 -10.9881 -10.2153 -2.66426 21.0875 -9.28787 -15.1442 0 0 0 -12.0848 2.95634 -13.3826 5.14586 -14.3456 4.6947 -14.8936 -18.969 17.8984 0 0 0 -1.75899 13.1487 12.8992 
-49.2539 2.7146 -39.0472 -1.97032 3.27757 77.1094 7.90639 -17.7634 11.1823 0.532733 15.6014 4.7288 -11.0304 6.25085 -1.79518 -8.63012 4.47523 -18.824 2.75858 7.54659 2.99597 0.606064 -13.1373 -7.45415 2.69239 1.25313 0.955829 0 0 0 2.11107 -1.07111 2.19608 -10.992 -10.2126 -2.66526 21.0928 -9.29079 -15.1461 0 0 0 -12.0889 2.91844 -13.3626 5.14601 -14.2701 4.68528 -14.8994 -19.0278 17.9008 0 0 0 -1.76785 13.1493 12.9106 
-49.2514 2.7172 -39.0498 -1.97408 3.27238 77.1099 7.90914 -17.7653 11.1937 0.52667 15.6005 4.7293 -11.0192 6.24842 -1.80583 -8.6285 4.47401 -18.8198 2.75676 7.53731 2.9952 0.618787 -13.129 -7.45729 2.69465 1.25853 0.95353 0 0 0 2.11192 -1.0881 2.1904 -10.9933 -10.2078 -2.66633 21.0987 -9.29261 -15.1421 0 0 0 -12.0911 2.88362 -13.3368 5.14433 -14.1967 4.67127 -14.8964 -19.0793 17.9019 0 0 0 -1.77716 13.1536 12.9271 
-49.2514 2.7222 -39.0522 -1.97473 3.27418 77.1199 7.90143 -17.7633 11.1765 0.521241 15.5944 4.73934 -11.0134 6.24971 -1.80775 -8.63044 4.48627 -18.8289 2.75427 7.52912 2.99535 0.630885 -13.1265 -7.46348 2.6963 1.26933 0.938931 0 0 0 2.10466 -1.10909 2.19271 -10.9933 -10.204 -2.67697 21.1044 -9.29129 -15.1345 0 0 0 -12.0903 2.85682 -13.3067 5.13707 -14.1386 4.66006 -14.9012 -19.1256 17.8986 0 0 0 -1.78854 13.1517 12.9402 
-49.2463 2.7272 -39.0548 -1.97548 3.27604 77.1272 7.88947 -17.7687 11.1573 0.513827 15.5948 4.75555 -10.9959 6.25149 -1.81339 -8.63419 4.48665 -18.8361 2.747 7.52771 2.99645 0.644026 -13.1239 -7.46689 2.69431 1.27203 0.936531 0 0 0 2.10056 -1.11579 2.17931 -10.9891 -10.201 -2.67329 21.106 -9.30197 -15.1313 0 0 0 -12.0905 2.84639 -13.291 5.1389 -14.0811 4.65218 -14.9093 -19.1775 17.8973 0 0 0 -1.79977 13.1615 12.9512 
-49.2463 2.7297 -39.0522 -1.97238 3.28292 77.1367 7.87627 -17.7743 11.1536 0.512173 15.5998 4.75057 -10.9877 6.25191 -1.80735 -8.63697 4.49659 -18.8469 2.73632 7.51569 3.00181 0.654682 -13.1181 -7.47247 2.687 1.28743 0.925834 0 0 0 2.09374 -1.13029 2.17052 -10.98 -10.2051 -2.66906 21.0999 -9.3077 -15.1263 0 0 0 -12.0915 2.82472 -13.2719 5.13884 -14.0161 4.64797 -14.9206 -19.2315 17.8849 0 0 0 -1.81486 13.1587 12.9662 
-49.2438 2.7347 -39.0548 -1.97301 3.28472 77.1467 7.87149 -17.7768 11.1434 0.503872 15.6035 4.74651 -10.9812 6.24666 -1.79556 -8.63233 4.51509 -18.8565 2.7251 7.49572 3.00147 0.669332 -13.115 -7.47915 2.68307 1.29363 0.918034 0 0 0 2.09506 -1.13879 2.16033 -10.9755 -10.2087 -2.66532 21.0913 -9.30403 -15.1238 0 0 0 -12.0986 2.81014 -13.2528 5.1499 -14.0033 4.65153 -14.9285 -19.2293 17.8756 0 0 0 -1.82268 13.1652 12.977 
-49.2438 2.7347 -39.0573 -1.97062 3.28878 77.1508 7.86153 -17.777 11.1387 0.508277 15.6081 4.74661 -10.9874 6.2442 -1.78399 -8.63245 4.52422 -18.8619 2.71079 7.48811 3.00384 0.686436 -13.112 -7.4769 2.67771 1.30853 0.910237 0 0 0 2.08939 -1.15448 2.16224 -10.9736 -10.2115 -2.66545 21.0854 -9.31006 -15.1208 0 0 0 -12.0942 2.7693 -13.2312 5.14294 -13.9693 4.64589 -14.9388 -19.2359 17.8669 0 0 0 -1.83477 13.1607 12.9916 
